<?xml version="1.0" standalone="yes"?>
<svg xmlns="http://www.w3.org/2000/svg" width="1615" height="610">
<path style="fill:#ffffff; stroke:none;" d="M0 0L0 610L1615 610L1615 0L0 0z"/>
<path style="fill:#000000; stroke:none;" d="M287 2L288 3L287 2M791 51L784 132L783 132C783 115.691 780.266 99.1809 779.27 83C778.845 76.0974 779.003 68.461 771 66L772 129L771 129C770.776 111.939 768.646 93.9861 766.826 77C766.292 72.0089 766.207 62.7282 761 61C762.34 98.938 766.498 137.153 769.089 175C769.939 187.401 772.336 200.591 771.802 212.999C771.539 219.096 765.426 222.962 761.036 226.29C753.252 232.19 742.646 245.625 734 235C727.346 236.962 722.847 232.636 720 227L719 227C718.387 234.317 727.594 240.914 733 245L733 246L729 251L734 250C734.598 256.765 719.605 263.523 727 268L713 284L714 284C719.211 278.735 733.694 262.909 741.532 262.666C745.651 262.538 750.267 272.98 752.149 276.039C760.954 290.348 773.985 304.702 775.444 322C776.497 334.481 771.132 345.704 770.185 358C767.316 395.24 764.715 432.626 760.833 470.004C758.832 489.277 753.278 510.717 755 530L758.432 516L765 472L767 472L767 509L773 506L774 506C774.529 513.452 773.738 532.038 782 535L780 515C786.526 513.867 784.913 505.366 786 500L787 500L787 506L788 506L784 328L785 328L807.381 364.985L860.439 450.995L889 496L894 496L885 477C891.619 478.725 896.765 488.738 901 494L902 494L886 464C881.519 460.772 880.048 457.308 879 452C891.951 462.501 900.518 479.671 910.218 493C915.488 500.241 918.294 507.248 928 509L928 513L933 512C929.474 504.261 922.579 498.38 918.348 491C913.468 482.487 909.511 465.233 899 462L899 461L901 460C895.747 455.668 887.855 442.89 888 436L896 450L911 463L907 459C905.931 452.219 899.977 446.774 896.133 441.335C887.686 429.38 879.422 417.55 870.424 405.996C851.869 382.169 835.193 356.771 816.489 333.001C807.691 321.819 792.082 309.313 787.009 296C784.824 290.266 787.7 282.941 787.961 277C788.55 263.571 784.767 248.045 787.634 235.001C788.969 228.926 793.088 228.727 797.424 225.451C805.947 219.013 818.024 212.637 823 203L827 205C831.934 198.115 844.284 197.068 845 188C849.329 186.714 851.924 183.54 852 179L848 181C866.068 157.694 897.681 149.582 919 130L912 130C916.04 126.137 920.118 121.046 925 126C935.364 120.384 947.686 113.599 938 103L937 103L916.209 116.498L894 135L932 98C921.582 99.4041 911.623 111.249 904.089 117.916C886.466 133.514 867.453 147.356 849 162C854.814 154.414 863.667 148.962 871 142.916C882.191 133.689 892.409 123.955 903 114.09C910.117 107.46 919.641 101.484 923 92L909 95.8604L892 106L893 109L863.385 133.255L791 198C788.036 160.762 794.177 125.209 796 88C796.428 79.2745 798.892 56.5325 791 51M175 61L170 86L168 86L164 75L164 69L163 69L166 130C155.446 126.412 134.856 110.146 130 100C113.489 99.5489 106.422 79.1559 93 74L92 75C92.6504 78.7269 90.2566 83.3224 91.7608 86.6968C93.703 91.0536 105.15 94.446 108.981 98.0941C116.825 105.562 122.227 115.103 130.428 122.576C140.794 132.021 154.482 140.36 161.346 153C167.22 163.815 157.299 177.795 156.177 188.285C153.164 216.463 149.183 243.942 143.805 272C141.934 281.759 142.926 295.312 137.606 303.957C133.414 310.768 122.957 312.757 116 315.659C100.132 322.278 85.1115 330.923 69 336.95C61.2691 339.842 46.5493 342.186 44 351C53.941 350.739 68.9342 347.87 77 342L79 348C84.5289 344.897 94.7645 343.067 97 337L102 339C107.714 332.927 117.218 328.703 125.039 326.032C127.865 325.067 132.126 323.859 133.883 327.167C135.761 330.702 133.189 337.266 132.59 341C130.605 353.349 128.17 365.611 126.424 378C125.359 385.561 128.061 391.759 127.725 399C126.817 418.627 122.017 439.638 118.389 459C116.405 469.589 114.805 480.569 112.252 491C110.205 499.362 106.083 507.184 107 516L119 518L117 514L123 512L124 519C134.97 509.734 135.182 480.556 137.131 467C142.19 431.813 150.627 397.47 153.925 362C154.886 351.668 156.295 341.365 156.914 331C157.226 325.793 156.642 318.58 159.894 314.148C162.691 310.335 172.49 308.251 176.999 306.791C191.192 302.194 205.795 298.651 220.015 293.819C233.756 289.15 254.28 277.292 269 279.228C274.403 279.939 278.628 284.121 283 287L277 279L296 275L296 273L292 271L289 258L289.251 249.166L284 242L287 241L287 240C284.604 239.425 284.513 239.525 284 242L281 240C283.84 235.458 277.704 232.319 274.424 229.454C264.981 221.208 256.38 212.294 247.285 203.59C231.492 188.474 214.042 175.073 198.2 160.04C192.499 154.631 182.807 149.534 179.879 141.91C177.003 134.421 179.481 124.781 179.426 117.001C179.338 104.645 177.386 92.2806 176.235 80C175.708 74.3762 178.19 65.5796 175 61M1205 63C1202.83 71.7559 1204.25 83.3704 1197 90L1198 94L1192.68 109L1177 159L1180 160L1202 100L1203 100L1202 103C1206.01 108.371 1201.2 117.26 1199.33 123C1194.31 138.391 1186.09 155.707 1186 172C1194.28 168.753 1196.45 150.83 1199 143L1200 143L1200 164C1203.96 165.172 1204.89 166.941 1205 171C1212.39 168.429 1212.7 149.91 1213 143L1214 143L1222 169L1224 169L1221 129L1222 129C1224.16 139.469 1226.91 149.77 1230 160C1231.48 164.898 1232.73 170.343 1238 172L1239 163C1232.3 137.89 1224.29 111.481 1215.79 87C1212.77 78.3245 1215.02 67.0824 1205 63M997 68L994 98L986.982 103.968L950 86C955.33 104.989 982.117 110.836 989.791 128.04C993.399 136.129 989.312 150.521 988.13 159C984.439 185.496 978.554 211.56 974.87 238C973.664 246.655 975.134 267.919 965 271C958.277 278.809 952.967 271.061 945.063 273.369C939.012 275.136 946.703 280.794 949 282L949 284L922 305L923 309L942 299L931 317C938.84 312.806 945.911 307.296 953.714 302.944C956.431 301.429 960.937 298.272 964.107 300.394C966.539 302.022 966.086 306.463 966.424 309C967.683 318.443 967.999 328.467 968 338C968.001 355.376 970.213 372.729 970.675 390.09C970.939 399.98 968.996 410.121 969.259 420C969.553 431.003 974.64 445.286 971.566 455.96C969.681 462.506 955.167 468.404 949.424 471.671C946.654 473.246 941.105 475.773 941.947 479.827C942.68 483.359 946.931 481.14 949.17 481.129L972 481L975.464 512.17L977 530L978 530C979.068 518.257 981.007 504.28 984.419 493.039C985.292 490.165 988.052 488.644 988.976 485.871C990.499 481.301 987.722 476.564 990.742 472.171C998.896 460.309 1018.1 454.951 1030.91 450.537C1052.15 443.218 1074.65 435.052 1095 425.627C1104 421.458 1117.94 412.063 1128 412.63C1133.64 412.949 1138.06 417.81 1143 420C1145.89 411.751 1138.77 411.775 1137.77 405.106C1136.74 398.256 1153.47 406.62 1156 407C1154.89 403.358 1155.64 397.282 1153.38 394.394C1148.85 388.595 1138.27 389.584 1141 380L1140 379C1128.56 382.596 1113.94 371.786 1104.42 365.494C1082.18 350.792 1056.21 340.456 1032.96 326.995C1023.86 321.728 1010.08 315.113 1008 304L1005 305C1004.37 296.113 1000.93 281.263 1005.32 273.104C1008.28 267.596 1017.69 263.846 1023 260.965C1035.33 254.272 1047.79 247.694 1060 240.765C1066.87 236.867 1073.76 231.715 1082 233L1081 229C1086.44 227.514 1092.42 223.549 1097.99 226.407C1108.29 231.704 1113.67 250.208 1127 248L1124 243L1129 243C1124.94 234.514 1121.94 229.235 1116.11 221.82C1114.93 220.313 1113.49 217.635 1116.21 216.792C1123.33 214.584 1131.52 227.184 1138 229C1137.24 220.654 1131.63 216.368 1125 212L1125 211L1135 203L1136 203L1141 209L1142 209L1148 202L1139 200L1140 196L1139 195L1121 197C1124.67 192.371 1134.7 191.944 1132 185L1136 183L1136 182L1109 182C1122.38 168.131 1101.81 172.81 1094 177L1091 171L1091 174C1069.45 162.913 1050.05 149.065 1030 135.695C1022.59 130.759 1009.18 124.087 1005.03 115.985C1002.6 111.253 1004.21 104.161 1003.96 99C1003.51 89.7457 1001.39 76.1909 997 68M278 70C275.46 83.8549 278.243 94.4978 278.683 108C278.806 111.789 275.276 115.064 276.113 118.791C280.774 139.54 288.52 160.428 292.8 182C302.098 228.854 306.247 276.884 311.478 324C313.936 346.131 317.566 367.749 319.09 390C320.16 405.635 320.688 421.427 322.17 437C323.125 447.04 325.367 458.057 323 468C326.796 475.681 328.252 492.599 326.076 501C323.991 509.052 318.591 515.429 320 524C328.341 522.708 325.976 517.576 328.626 511.715C331.945 504.374 336.374 497.301 340 490L341 490C343.92 499.082 339.289 506.718 336.04 515.004C334.293 519.459 332.441 523.292 338 525L338 529C343.649 524.858 347.6 515.014 351.311 509C355.06 502.923 362.107 498.126 365.03 491.957C370.758 479.871 372.629 463.912 377.089 451C399.302 386.69 416.505 320.745 433.846 255C439.29 234.36 447.73 214.602 453.36 194C455.412 186.492 456.911 172.024 463 167L467 150L466 150L453 181L452 181C458.149 151.585 470.372 120.423 471 90L466 97L465 97L462 85L461 85C446.732 154.162 419.628 218.56 396.345 285C388.762 306.64 384.482 329.203 377.537 351C371.961 368.5 365.149 386.066 361 404L358 404L357 412L356 412C344.351 388.133 345.805 360.802 340.583 335C329.504 280.255 318.341 225.4 306 171C301.661 151.875 296.309 133.77 291.139 115C289.498 109.043 284.747 99.196 293 97L292 94C281.982 94.3217 282.249 77.2063 280 70L278 70M1526 72L1525 72C1515.06 78.2974 1502.29 79.1989 1491 81.5131C1465.25 86.7924 1438.93 94.0893 1413 92.3719C1405.37 91.8665 1395.96 93.4735 1389 90L1388 90C1378.38 95.1313 1360.26 90.6132 1350 88.2354C1325.24 82.4954 1295.34 71.9061 1270 73C1270.56 80.0247 1277.1 80.304 1283 81.4861C1297.46 84.3824 1314.3 89.3282 1329 90L1329 91C1309.65 91.9187 1285.73 90.5201 1267 86L1266 90L1277 93L1277 94C1272.09 94 1264.96 95.564 1262 91L1259 92C1260.38 97.21 1262.85 98.8732 1268 100C1266.88 110.078 1278.24 107.983 1285 110L1285 112C1277.5 114.361 1268.33 120.681 1282 119L1282 120L1266 123L1266 118C1260.21 118.451 1258.78 123.365 1265.02 125.425C1275.41 128.863 1290.52 125.221 1301 123.614C1324.89 119.952 1348.86 115.29 1373 113.808C1385.97 113.012 1399.13 114.275 1412 112.87C1426.99 111.235 1440.55 108.028 1456 109.015C1470.72 109.955 1484.34 116.691 1499.01 118.704C1521.77 121.825 1544.22 121.762 1567 123L1567 122L1524 117L1527 115C1518.72 109.535 1502.82 107.978 1493 107L1493 106L1554 112L1554 111L1527 105L1527 104L1560 101L1560 99L1461 99L1461 98C1486.15 92.2515 1512.29 90.9891 1537.83 88.1775C1544.44 87.4502 1560.68 88.8932 1562 81L1532 81.1404L1521 79L1549 71L1526 72M725 73L712 94L711 94L711 89C699.391 95.7169 698.539 112.155 691.323 122.37C681.841 135.794 671.038 148.244 661.883 162C653.512 174.577 647.254 188.485 638.945 201C632.96 210.016 619.542 217.338 617 228L626 223L626 231L647 210L625 250C631.867 248.348 634.609 244.144 639 239L635 253L640 251C642.477 258.815 641.119 266.363 642.748 274C644.475 282.099 648.599 289.637 650.127 297.999C656.353 332.059 656 366.461 656 401L652 397L651 397L655 419C642.174 405.445 639.934 380.372 631 364L634 365C634.864 360.384 632.371 357.236 630.742 353C626.852 342.889 622.835 328.932 614 322L614 321L616 320L616 319L607 308C608.252 286.629 581.125 268.469 582 247C571.304 240.82 568.264 220.159 562 210L561 210L560 214L559 214C547.496 189.283 532.242 166.038 520.86 141.09C517.28 133.242 509.043 123.872 510 115C500.953 109.488 501.314 92.2473 491 89L490 97C482.043 99.2363 489.072 114.826 490.958 120C499.941 144.639 504.105 170.482 509.648 196C516.305 226.647 520.559 258.046 525.264 289C527.2 301.739 533.848 318.166 530.565 331C527.236 344.014 520.587 355.621 515.634 368C501.764 402.668 488.126 437.375 471.755 471C462.339 490.338 444 514.121 444 536C453.538 531.83 460.073 518.161 464 509L465 509L463 526C467.168 523.38 469.058 517.792 469 513C475.282 509.037 477.953 499.639 480.648 493C485.286 481.575 491.461 470.901 497.169 460C516.815 422.483 558.893 394.215 571 353L572 353L573 356L574 356L572 353L572 352C578.663 343.182 562.88 336.986 556 339L561 324L553 331L558 313L552 317L549.479 300L552 287L547 292C544.87 283.77 538.117 265.564 543 258C542.13 263.888 545.941 275.854 552 278C540.321 252.979 535.923 222.715 530.087 196C527.672 184.942 521.989 174.323 521 163L522 163C524.924 170.217 530.489 176.025 533.966 183C544.235 203.599 552.307 225.28 562.309 246C568.112 258.023 578.091 275.48 578 289C583.754 293.675 585.372 302.181 587.667 309C591.993 321.852 596.801 334.397 601.764 347C609.691 367.132 615.836 387.863 623.66 408C637.227 442.917 651.037 477.458 654 515L655 515L658 506C660.643 513.165 663.91 523.035 672 525L671 520L666 505L663 504C674.126 501.283 674.374 518.287 681 523L679 494L682 495L684 491C687.139 500.813 688.98 513.071 700 516L702 512C695.102 496.762 694.008 476.456 690.905 460C687.522 442.055 681.983 423.058 680.171 405C678.775 391.094 681.276 366.32 672 355L672 354C675.206 347.658 667.31 337.131 665.725 330.83C661.389 313.599 664.944 295.019 661.593 278.058C660.682 273.45 655.388 272.449 654.824 266.999C653.713 256.258 663.818 242.285 666.856 232C674.619 205.714 685.132 180.451 692.36 154C695.89 141.086 699.461 121.059 710 112C708.599 98.946 729.982 85.696 725 73M473 76L473 79L474 79L473 76z"/>
<path style="fill:#ffffff; stroke:none;" d="M1274.67 76.3333L1275.33 76.6667L1274.67 76.3333z"/>
<path style="fill:#000000; stroke:none;" d="M926 88L923 90L923 91L926 88z"/>
<path style="fill:#ffffff; stroke:none;" d="M1207 89L1203 100L1204 100L1207 89z"/>
<path style="fill:#000000; stroke:none;" d="M992 92L993 93L992 92z"/>
<path style="fill:#ffffff; stroke:none;" d="M1278 93L1278 94L1284 95L1284 93L1278 93M1325 100L1325 101L1363 99C1353.34 94.7032 1335.19 98.1089 1325 100M491.333 98.6667L491.667 99.3333L491.333 98.6667M1308 100L1308 101L1324 101L1308 100z"/>
<path style="fill:#000000; stroke:none;" d="M1567 99L1567 100L1570 100L1567 99M293 102L296 111L298 111C298.776 106.269 296.977 104.377 293 102z"/>
<path style="fill:#ffffff; stroke:none;" d="M1363 107L1363 108L1386 107L1386 105L1363 107M1286 109L1286 112L1294 109L1286 109z"/>
<path style="fill:#000000; stroke:none;" d="M1555 110L1558 113L1555 110z"/>
<path style="fill:#ffffff; stroke:none;" d="M1497.67 113.333L1498.33 113.667L1497.67 113.333M1501 113L1502 114L1501 113M1503 113L1504 114L1503 113M1506 113L1510 116L1506 113M1316 115L1316 116L1322 115L1316 115M1287 120L1311 117C1306.45 113.712 1290.68 115.768 1287 120M928 120L929 121L928 120M924 123L927 123L926 121L924 123M461 122L461 125L462 125L461 122z"/>
<path style="fill:#000000; stroke:none;" d="M923 126L924 127L923 126M1419 132L1421 143L1418 155L1417 155L1411 147C1410.24 150.984 1410.39 153.787 1414 156C1411.02 163.96 1415.39 172.848 1409 179C1409.01 167.352 1411.3 150.732 1407 140L1405 140L1404.96 159L1404 185L1403 185C1402.93 176.152 1400.79 167.676 1400.35 159C1400.19 155.969 1402.65 153.021 1402.1 150.148C1401.61 147.6 1397.72 146.319 1396.12 148.608C1394.61 150.751 1395.95 155.496 1396 158C1384.66 152.849 1396.4 179.159 1391 186L1391 187L1393 193C1385.47 186.542 1388.24 169.791 1386.44 161C1385.64 157.083 1380.91 155.764 1380 160C1376.82 158.691 1370.25 157.403 1370.21 163.019C1370.18 166.463 1374.16 169.521 1374.94 173C1379.02 191.226 1386.41 215.457 1382 234L1372 202L1371 202L1386.71 299L1386.71 383L1389 430L1390 431L1392 431L1393 381L1394 381C1391.08 407.149 1398.23 435.959 1400.83 462C1403.31 486.779 1402.42 514.11 1410 538C1414.47 530.894 1412.53 521.996 1413.09 514C1414.38 495.74 1414.66 477.368 1416.14 459C1422.39 381.599 1425.98 303.666 1421.27 226C1419.81 202.021 1422 178.003 1422 154C1422 148.172 1426.66 132.353 1419 132z"/>
<path style="fill:#ffffff; stroke:none;" d="M893 135L894 136L893 135M784 136L785 137L784 136M887 139L888 140L887 139M1005 139L1005 204L1006 243C1023.06 236.743 1041.96 220.586 1056 209.077C1059.58 206.143 1069.47 200.636 1069.17 195.285C1068.86 189.786 1058.73 183.497 1055 180.166C1040.23 166.981 1022.9 147.46 1005 139M775 145L776 155L777 155L775 145M1205 145L1206 146L1205 145M1040 151C1045.13 161.906 1059.59 171.305 1068.59 179.156C1072.7 182.745 1076.26 187.002 1082 187L1072.42 176.66L1040 151z"/>
<path style="fill:#000000; stroke:none;" d="M1551.67 154.333L1552.33 154.667L1551.67 154.333z"/>
<path style="fill:#ffffff; stroke:none;" d="M506.333 156.667L506.667 157.333L506.333 156.667M775 156C770.028 172.822 777 193.7 777 211L778 211L776.92 171.09L775 156M1414 157L1414 160L1417 163L1418 163L1418 156L1414 157M519 157L519 161L520 161L519 157M845 166L849 162L845 166M508 163C508.67 191.578 522.344 218.231 527 246L529 246L510 163L508 163M683.333 165.667L683.667 166.333L683.333 165.667M843 165L841 168L843 165M1380 165C1378.14 171.29 1379.29 186.976 1385 191L1382 165L1380 165M1396 166L1397 167L1396 166M175 172L161 294C168.716 293.504 174.247 288.733 181 285.563C196.225 278.417 211.466 270.153 225.961 261.637C230.449 259 242.52 251.949 241.863 246C241.035 238.488 229.534 229.51 224.738 223.975C209.764 206.694 193.348 189.529 180 171L175 172z"/>
<path style="fill:#000000; stroke:none;" d="M863 172L864 173L863 172M857 175L856 178L859 176L857 175z"/>
<path style="fill:#ffffff; stroke:none;" d="M445 179L445 184L446 184L445 179z"/>
<path style="fill:#000000; stroke:none;" d="M1136 180L1138 182L1138 180L1136 180z"/>
<path style="fill:#ffffff; stroke:none;" d="M1395 180L1397 183L1395 180M844 184L848 182L844 184M445 185L446 186L445 185M1131 186L1132 187L1131 186M675 187L673 193L675 187M443.333 189.667L443.667 190.333L443.333 189.667M1400 311L1399 321L1401 321L1398 190C1388.57 194.653 1393.63 205.667 1394 214C1395.04 237.383 1397.41 260.583 1398.05 284C1398.22 290.007 1395.82 307.174 1400 311z"/>
<path style="fill:#000000; stroke:none;" d="M1223 191C1218.84 205.061 1221 225.209 1221 240L1219 240C1218.99 231.277 1217.93 215.929 1214.03 208.059C1210.46 200.867 1204.33 209.672 1204 214L1203 214L1203 211L1199 212L1200 218C1195.48 216.324 1194.7 213.674 1195 209L1191 210L1187 203L1190 252L1189 252L1185 246L1188 266L1183 268L1192 283C1190.45 293.103 1196.28 307.245 1196.91 318C1197.74 332.422 1194.37 347.639 1193.08 362C1192.42 369.249 1188.34 381.448 1194 387C1195.77 379.609 1194.44 367.44 1200 362L1201.96 428L1209 531L1212 531C1212 504.31 1216.16 476.304 1221.38 450C1222.16 446.038 1225 442.694 1225.66 438.83C1226.55 433.615 1224.55 427.54 1225.16 422C1228.32 393.059 1230.06 363.991 1233.17 335C1236 308.598 1240.54 282.421 1243.17 256C1244.13 246.36 1247.14 236.012 1246.74 226.335C1246.56 222.091 1244.38 218.268 1244 214C1236.69 211.431 1237.7 203.557 1236 197L1231 199L1230 191L1223 191z"/>
<path style="fill:#ffffff; stroke:none;" d="M524 194L524 197L525 197L524 194M673 194L674 195L673 194M1226 195L1226 198L1227 198L1226 195M672 198L657.755 234.985L646 260L650 261L654 247L655 247L655 249L656 249L668.559 212L672 198M1138 200L1139 201L1138 200M213 201L214 202L213 201M1386 201L1389 227L1390 227L1388 201L1386 201M1128 202L1128 203L1131 203L1128 202M1125 204L1126 205L1125 204M1069 205C1060.67 211.07 1049.14 223.005 1039 225L1040 228L1033 233C1040.73 231.972 1059.65 221.641 1062 214C1066.94 213.292 1074.12 210.172 1069 205M219 208C221.703 218.421 233.402 227.718 240.42 235.615C243.847 239.472 246.551 243.203 252 242C245.34 230.151 231.01 214.545 219 208M647 209L648 210L647 209M987 209L977 262C981.734 260.655 983.664 257.806 984.56 253C986.714 241.457 991.645 220.07 987 209M239 210C241.365 219.079 251.509 226.508 257.917 233C260.164 235.277 265.71 241.988 267 236L268 236L268 238L269 238C265.122 226.308 249.792 215.206 239 210M436 212L433 227L434 227L438 212L436 212z"/>
<path style="fill:#000000; stroke:none;" d="M1061 213L1062 214L1061 213z"/>
<path style="fill:#ffffff; stroke:none;" d="M651 216L652 217L651 216M1205.33 216.667L1205.67 217.333L1205.33 216.667z"/>
<path style="fill:#000000; stroke:none;" d="M1057 218L1058 219L1057 218z"/>
<path style="fill:#ffffff; stroke:none;" d="M649 219L642 235C646.434 232.438 650.9 224.033 649 219M563 221L564 222L563 221M1195 222L1196 223L1195 222M531.333 223.667L531.667 224.333L531.333 223.667M1195 225L1199 239C1198.54 234.084 1199.6 227.947 1195 225M532 226L533 230L534 230L532 226M431 228L431 229L431 230L434 230L434 229L431 228z"/>
<path style="fill:#000000; stroke:none;" d="M538 228L539 229L538 228z"/>
<path style="fill:#ffffff; stroke:none;" d="M1390 230L1390.81 250.015L1392 289C1395.31 286.496 1395.08 279.688 1392 277L1392 276C1395.91 272.581 1392.66 267.246 1392.46 262.83C1392.02 253.032 1395.96 238.709 1390 230M431 231C413.042 270.819 407.004 314.059 396.486 356C393.391 368.342 390.481 381.467 386.731 393.576C383.991 402.426 379.478 411.659 379 421L380 421C398.6 377.116 408.618 326.4 419.654 280C422.448 268.256 426.465 256.812 429 245C429.939 240.622 432.321 235.35 431 231M520 232L521 240L522 240L520 232M764 234L765 235L764 234M535.333 235.667L535.667 236.333L535.333 235.667M1382 236L1383 237L1382 236M307 239L307 244L308 244L307 239M272 241L272 245C273.813 243.444 273.813 242.556 272 241M756 259L773 246L774 243C766.549 241.92 758.488 252.874 756 259M275 243L276 244L275 243M522 243C523.88 266.825 526.596 297.599 535 320C546.961 305.195 535.539 275.761 529.932 260C527.931 254.374 527.717 245.91 522 243M537 243L538 249L539 249L537 243M645 243L644 249L647 243L645 243z"/>
<path style="fill:#000000; stroke:none;" d="M655 245L656 246L655 245z"/>
<path style="fill:#ffffff; stroke:none;" d="M274 248L278 251L279 248L274 248M1204 248L1203.96 295L1207 328L1205 328L1209 363L1210 363C1210 336.573 1209.2 310.374 1208.56 284C1208.31 274.111 1209.69 256.326 1204 248M529 249L529 252L530 252L529 249z"/>
<path style="fill:#000000; stroke:none;" d="M1126 250L1137 258L1129 249L1126 250z"/>
<path style="fill:#ffffff; stroke:none;" d="M256 250L257 251L256 250M153 251L153 260L154 260L153 251M309 251L310 252L309 251M539 251L539 255L540 255L539 251M309 253L308 255L310 255L309 253M760 260C761.408 267.644 765.474 273.732 772 278L771 268L776 270L775 254L760 260M228 263L229 267L248 256L228 263M310 257L310 262L311 262L310 257z"/>
<path style="fill:#000000; stroke:none;" d="M1139 261L1140 262L1139 261z"/>
<path style="fill:#ffffff; stroke:none;" d="M152 263L153 264L152 263M310 263L310 265L312 265L312 263L310 263M732 264L733 265L732 264M151 265L152 274L151 265M311 266L314 288L315 288L311 266M249 268L245 270L246 273L249 268M253 268L252 270L253 268M240 272L241 273L240 272M652 272L653 273L652 272M149 275L149 281L150 281L149 275M404 277L402 283L404 277M1227 277L1228 278L1227 277M999 279C997.912 286.241 994.178 298.304 1000 304L999 279M401 286L400 291L401 291L401 286z"/>
<path style="fill:#000000; stroke:none;" d="M709 286L707 289L711 287L709 286z"/>
<path style="fill:#ffffff; stroke:none;" d="M314 289L315 293L316 293L314 289M1393 290L1393 295L1394 295L1393 290M145 293L146 294L145 293M398 295L397 298L398 295M1225 298L1226 299L1225 298M317 300L317 310L318 310L317 300M973 303C973 307.102 971.147 314.96 976 316L976 311L973 303M597 305L600 308L597 305M975 309L976 310L975 309M393 311L394 312L393 311M325 313L326 314L325 313M1223 313L1222 333L1224 333L1223 313M392 315L392 318L393 318L392 315z"/>
<path style="fill:#000000; stroke:none;" d="M928 316L928 318L930 318L928 316z"/>
<path style="fill:#ffffff; stroke:none;" d="M603 318C603.632 327.93 610.499 338.719 614.105 348C622.755 370.264 630.561 392.803 639.34 415C642.27 422.407 645.024 442.284 654 443C653.905 431.644 648.204 420.397 644.014 410C635.854 389.753 627.138 369.973 618.424 350C614.657 341.366 610.484 323.592 603 318M973 318L974 323L975 323L973 318M1417.33 318.667L1417.67 319.333L1417.33 318.667M391.333 321.667L391.667 322.333L391.333 321.667M988 322L987 323L987 324L987 325L990 322L988 322M319 325L321 327L319 325M542 326L539 339C544.739 336.169 546.012 331.051 542 326M987 327L987 335L988 335C988.775 331.472 990.275 329.363 987 327M1007 327L1001 365L1004 364L1005 365C998.722 387.341 994.479 415.776 994 439C1014.78 424.852 1037.57 416.038 1060 404.997C1066.63 401.735 1081.11 397.851 1084.52 390.776C1088.28 382.987 1074.04 375.978 1069.42 372.12C1058.8 363.24 1046.94 355.833 1036 347.335C1026.94 340.291 1017.58 331.647 1007 327z"/>
<path style="fill:#000000; stroke:none;" d="M542 328L543 329L542 328z"/>
<path style="fill:#ffffff; stroke:none;" d="M1399 329L1399 332L1400 332L1399 329M1416 330L1416 341L1417 341L1416 330M328 332L329 336L330 336L328 332M101 336L104 334L101 336M99 335L100 336L99 335M623 337L624 338L623 337M329 338L329 344L330 344L329 338M807 338L816.386 357.039L842.646 398L857 415L834.167 375L807 338M987 339L988 340L987 339M321 343L321 347L322 347L321 343M330 345L332 378L335 377L330 345M1416 345L1417 358L1416 345M534 348L528 367L529 367L536 348L534 348z"/>
<path style="fill:#000000; stroke:none;" d="M42 350L37 352L37 353C39.4989 352.959 43.2347 353.275 42 350z"/>
<path style="fill:#ffffff; stroke:none;" d="M563 350C553.457 368.36 528.938 382.972 527 405L528 405L528 401C533.016 400.429 536.059 394.885 538.799 391C545.187 381.94 551.84 373.105 558.155 364C561.177 359.643 565.533 355.521 565 350L563 350M979.333 352.667L979.667 353.333L979.333 352.667z"/>
<path style="fill:#000000; stroke:none;" d="M1416 353L1417 354L1416 353M33 354L34 355L33 354z"/>
<path style="fill:#ffffff; stroke:none;" d="M627 355L631 360L627 355M987.333 356.667L987.667 357.333L987.333 356.667M980 358L981 359L980 358M1198 358L1199 359L1198 358M1416 359L1415 368L1416 368L1416 359M979 360L979 378L979 379L977 394L980 394L979 360M616.333 365.667L616.667 366.333L616.333 365.667z"/>
<path style="fill:#000000; stroke:none;" d="M634.667 366.333L635.333 366.667L634.667 366.333z"/>
<path style="fill:#ffffff; stroke:none;" d="M383 368C375.205 386.016 370.41 405.344 364.445 424C361.815 432.228 357.482 441.315 360 450L362 450L385 368L383 368M1415 369L1416 370L1415 369z"/>
<path style="fill:#000000; stroke:none;" d="M13 372L12 375L13 372M639 372L641 375L639 372M642 375L643 376L642 375z"/>
<path style="fill:#ffffff; stroke:none;" d="M1392 376L1393 377L1392 376M1415.33 379.667L1415.67 380.333L1415.33 379.667M332 380L335 415L338 415L336 409C337.856 402.028 338.72 383.706 332 380z"/>
<path style="fill:#000000; stroke:none;" d="M380 380L381 381L380 380z"/>
<path style="fill:#ffffff; stroke:none;" d="M1105 381L1106 382L1105 381z"/>
<path style="fill:#000000; stroke:none;" d="M643 383L649 393L648 395L648 396C650.995 393.029 647.14 386.612 646 383L643 383z"/>
<path style="fill:#ffffff; stroke:none;" d="M1408 386L1408 391L1409 391L1408 386M1127 393L1128 394L1127 393M977 395L980 398L977 395M1127 400L1137 400C1133.58 395.955 1129.77 394.793 1127 400M1401.33 396.667L1401.67 397.333L1401.33 396.667M137 401L137 405L138 405L137 401M993 401L993 406L994 406L993 401M661 402L662 403L661 402M1100 408L1086 412L1086 413C1095.07 413.988 1105.18 409.261 1113 405C1109.09 402.815 1102.69 404.454 1100 408M1407 403L1407 413L1408 413L1407 403M136 407L135 411L136 411L136 407M524 407L525 408L524 407M1071 409L1073 411L1071 409M522 410L523 411L522 410M1064 414L1069 410L1064 414M135 412L134 420L135 420L137 412L135 412M355 413L356 414L355 413M1407 414L1405 451L1406 451C1406.46 440.308 1411.2 423.998 1407 414M336 416L337 417L336 416M337 418L339 446L340 446C339.96 438.691 341.416 423.83 337 418M377 423L376 428L377 423M133 425L131 432L133 425M660 426L660 435C663.78 432.537 663.56 428.636 660 426M375.333 430.667L375.667 431.333L375.333 430.667M883 432L887 437L883 432z"/>
<path style="fill:#000000; stroke:none;" d="M1390 432L1389 435L1390 432z"/>
<path style="fill:#ffffff; stroke:none;" d="M373 436L373 440L374 440L373 436M999 442L1004 441L999 442M870 440L878 452C876.715 446.903 874.642 442.677 870 440M329.333 442.667L329.667 443.333L329.333 442.667M993 443L994 446L996 446L997 443L993 443M127 448L127 453L128 453L127 448M682 450C683.029 455.779 681.577 463.288 687 467L682 450M129 452L130 453L129 452M127.667 456.333L128.333 456.667L127.667 456.333M126 459L125 460L125 461L125 462L128 459L126 459M659 459L660 460L659 459M659 461L661 471C662.091 467.023 661.736 464.147 659 461M685 468L688 470L685 468M351 472L351 480L352 480L351 472M686 472L689 484L690 484L688 472L686 472M883 472L886 476L883 472M330 480L331 487L332 487L330 480M349 481L350 482L349 481M914 484L915 485L914 484M657 485C657.439 490.365 658.219 494.766 664 496C662.967 491.442 661.215 487.26 657 485M689 486L693 501L694 501C693.61 496.011 693.358 489.066 689 486M678 488L678 493L682 493L678 488M661 497L666 500L661 497z"/>
<path style="fill:#000000; stroke:none;" d="M895 498L895 500L897 498L895 498z"/>
<path style="fill:#ffffff; stroke:none;" d="M662.333 501.667L662.667 502.333L662.333 501.667z"/>
<path style="fill:#000000; stroke:none;" d="M897.333 501.667L897.667 502.333L897.333 501.667M561 503L562 504L561 503M115.667 524.333L116.333 524.667L115.667 524.333M681 525L682 526L681 525M681 528L681 532L682 532L681 528M977 532L978 533L977 532M438 602L439 603L438 602z"/>
</svg>
